<svg width="510" height="507" viewBox="0 0 510 507" fill="none" xmlns="http://www.w3.org/2000/svg">
<g filter="url(#filter0_f_516_55)">
<path d="M400.037 139.755C459.858 216.562 447.656 326.071 372.821 384.356C297.986 442.64 188.823 427.656 129.003 350.849C69.1821 274.042 81.3841 164.533 156.219 106.249C231.053 47.9642 340.216 62.9486 400.037 139.755Z" stroke="white" stroke-opacity="0.55"/>
<path d="M394.252 249.073C394.638 256.139 391.429 263.029 385.188 269.45C378.946 275.871 369.703 281.786 358.119 286.88C334.954 297.066 302.524 303.924 266.323 305.018C230.122 306.112 197.052 301.233 172.854 292.478C160.753 288.1 150.896 282.762 143.976 276.739C137.056 270.716 133.107 264.042 132.722 256.976C132.336 249.91 135.545 243.019 141.786 236.599C148.028 230.178 157.271 224.263 168.855 219.169C192.02 208.983 224.451 202.124 260.651 201.031C296.852 199.937 329.922 204.816 354.12 213.57C366.221 217.948 376.078 223.286 382.998 229.31C389.918 235.332 393.867 242.006 394.252 249.073Z" stroke="white" stroke-opacity="0.55"/>
<path d="M399.392 245.02C400.085 252.982 397.098 260.835 391.027 268.232C384.954 275.632 375.813 282.551 364.262 288.617C341.162 300.749 308.511 309.425 271.788 311.746C235.065 314.066 201.27 309.587 176.323 300.491C163.849 295.943 153.61 290.248 146.323 283.693C139.038 277.139 134.725 269.747 134.033 261.786C133.34 253.824 136.327 245.971 142.398 238.574C148.471 231.174 157.612 224.255 169.163 218.189C192.263 206.057 224.913 197.381 261.637 195.06C298.36 192.74 332.155 197.219 357.102 206.315C369.576 210.863 379.815 216.558 387.102 223.114C394.386 229.667 398.699 237.059 399.392 245.02Z" stroke="white" stroke-opacity="0.55"/>
<path d="M392.957 242.605C395.071 260.284 382.133 277.865 359.167 291.971C336.233 306.057 303.446 316.575 266.242 320.159C229.039 323.743 194.511 319.709 168.769 310.312C142.991 300.901 126.191 286.185 124.077 268.506C121.963 250.828 134.901 233.247 157.867 219.141C180.801 205.055 213.588 194.536 250.792 190.953C287.995 187.369 322.523 191.403 348.265 200.8C374.043 210.21 390.843 224.927 392.957 242.605Z" stroke="white" stroke-opacity="0.55"/>
<path d="M393.607 239.817C396.563 259.216 384.18 278.855 361.492 294.914C338.826 310.959 305.988 323.339 268.348 328.223C230.708 333.106 195.443 329.561 168.861 319.907C142.253 310.242 124.482 294.516 121.526 275.117C118.57 255.719 130.953 236.08 153.641 220.02C176.307 203.976 209.145 191.596 246.785 186.712C284.425 181.829 319.691 185.373 346.272 195.028C372.88 204.692 390.651 220.419 393.607 239.817Z" stroke="white" stroke-opacity="0.55"/>
<path d="M394.323 236.649C398.232 257.73 386.528 279.41 364.217 297.424C341.92 315.426 309.116 329.685 271.086 335.903C233.056 342.12 197.049 339.111 169.585 329.244C142.103 319.371 123.283 302.681 119.374 281.6C115.465 260.519 127.169 238.838 149.48 220.825C171.776 202.822 204.58 188.563 242.611 182.346C280.641 176.128 316.647 179.137 344.112 189.004C371.594 198.877 390.414 215.568 394.323 236.649Z" stroke="white" stroke-opacity="0.55"/>
<path d="M395.088 233.091C400.061 255.811 389.157 279.512 367.323 299.475C345.498 319.43 312.815 335.581 274.442 343.166C236.069 350.75 199.32 348.323 170.932 338.292C142.533 328.258 122.59 310.654 117.617 287.934C112.645 265.214 123.549 241.513 145.383 221.549C167.208 201.594 199.891 185.443 238.264 177.859C276.636 170.274 313.386 172.702 341.773 182.733C370.172 192.767 390.116 210.371 395.088 233.091Z" stroke="white" stroke-opacity="0.55"/>
<path d="M395.884 229.135C402.027 253.445 392.044 279.139 370.787 301.043C349.535 322.941 317.06 340.993 278.395 349.976C239.729 358.958 202.238 357.16 172.889 347.017C143.533 336.871 122.392 318.408 116.248 294.097C110.105 269.787 120.088 244.093 141.345 222.189C162.597 200.291 195.072 182.239 233.738 173.256C272.404 164.274 309.894 166.072 339.243 176.215C368.599 186.361 389.741 204.824 395.884 229.135Z" stroke="white" stroke-opacity="0.55"/>
<path d="M396.689 224.775C404.109 250.623 395.165 278.275 374.585 302.106C354.007 325.935 321.83 345.893 282.922 356.303C244.014 366.713 205.785 365.592 175.439 355.389C145.089 345.185 122.678 325.921 115.258 300.074C107.838 274.226 116.782 246.574 137.362 222.743C157.94 198.915 190.117 178.956 229.025 168.546C267.934 158.136 306.162 159.257 336.509 169.46C366.859 179.665 389.27 198.928 396.689 224.775Z" stroke="white" stroke-opacity="0.55"/>
<path d="M397.487 220.007C406.286 247.333 398.498 276.904 378.695 302.644C358.893 328.383 327.101 350.25 288.003 362.115C248.905 373.98 209.944 373.585 178.567 363.377C147.189 353.17 123.439 333.169 114.64 305.843C105.841 278.517 113.628 248.945 133.431 223.205C153.233 197.467 185.025 175.6 224.123 163.734C263.221 151.869 302.182 152.265 333.559 162.472C364.937 172.68 388.688 192.681 397.487 220.007Z" stroke="white" stroke-opacity="0.55"/>
<path d="M398.255 214.822C408.535 243.563 402.017 275.009 383.091 302.634C364.165 330.26 332.848 354.034 293.613 367.38C254.379 380.726 214.694 381.105 182.257 370.951C149.819 360.797 124.662 340.126 114.383 311.385C104.104 282.644 110.622 251.199 129.548 223.573C148.473 195.947 179.791 172.173 219.025 158.827C258.26 145.481 297.945 145.102 330.382 155.256C362.82 165.41 387.976 186.081 398.255 214.822Z" stroke="white" stroke-opacity="0.55"/>
<path d="M398.975 209.22C422.682 269.379 378.409 342.35 299.727 372.07C221.046 401.791 138.186 376.844 114.478 316.684C90.7709 256.524 135.045 183.554 213.726 153.833C292.407 124.113 375.268 149.06 398.975 209.22Z" stroke="white" stroke-opacity="0.55"/>
<path d="M399.625 203.195C426.676 265.9 385.038 343.384 306.318 376.155C227.598 408.926 141.965 384.425 114.914 321.72C87.8632 259.014 129.501 181.53 208.221 148.759C286.941 115.988 372.574 140.49 399.625 203.195Z" stroke="white" stroke-opacity="0.55"/>
<path d="M400.185 196.745C430.762 261.84 392.003 343.747 313.358 379.608C234.713 415.468 146.255 391.57 115.678 326.475C85.1012 261.379 123.86 179.472 202.505 143.612C281.15 107.751 369.608 131.65 400.185 196.745Z" stroke="white" stroke-opacity="0.55"/>
<path d="M400.635 189.87C434.914 257.191 399.274 343.418 320.82 382.403C242.367 421.388 151.04 398.255 116.761 330.934C82.4813 263.614 118.122 177.386 196.576 138.401C275.029 99.4159 366.356 122.55 400.635 189.87Z" stroke="white" stroke-opacity="0.55"/>
<path d="M400.952 182.569C439.102 251.941 406.813 342.374 328.67 384.515C250.526 426.655 156.294 404.451 118.144 335.08C79.9939 265.708 112.283 175.275 190.426 133.134C268.569 90.9937 362.801 113.198 400.952 182.569Z" stroke="white" stroke-opacity="0.55"/>
<path d="M401.117 174.841C443.299 246.081 414.592 340.595 336.88 385.917C259.168 431.239 162.001 410.134 119.819 338.894C77.6372 267.654 106.344 173.139 184.056 127.817C261.768 82.4955 358.935 103.601 401.117 174.841Z" stroke="white" stroke-opacity="0.55"/>
<path d="M401.108 166.688C447.474 239.605 422.574 338.066 345.416 386.59C268.257 435.115 168.135 415.28 121.768 342.364C75.4021 269.447 100.302 170.986 177.461 122.462C254.619 73.937 354.742 93.772 401.108 166.688Z" stroke="white" stroke-opacity="0.55"/>
<path d="M400.904 158.114C451.599 232.507 430.726 334.768 354.245 386.512C277.764 438.257 174.673 419.867 123.978 345.473C73.283 271.08 94.1567 168.82 170.638 117.075C247.118 65.3307 350.209 83.7207 400.904 158.114Z" stroke="white" stroke-opacity="0.55"/>
<path d="M400.483 149.119C455.643 224.781 439.008 330.684 363.331 385.661C287.654 440.637 181.59 423.869 126.431 348.207C71.2713 272.545 87.9054 166.642 163.583 111.665C239.26 56.6885 345.324 73.4564 400.483 149.119Z" stroke="white" stroke-opacity="0.55"/>
</g>
<defs>
<filter id="filter0_f_516_55" x="89.0371" y="68.7188" width="350.966" height="353.167" filterUnits="userSpaceOnUse" color-interpolation-filters="sRGB">
<feFlood flood-opacity="0" result="BackgroundImageFix"/>
<feBlend mode="normal" in="SourceGraphic" in2="BackgroundImageFix" result="shape"/>
<feGaussianBlur stdDeviation="0.75" result="effect1_foregroundBlur_516_55"/>
</filter>
</defs>
</svg>
