<svg width="332" height="322" viewBox="0 0 332 322" fill="none" xmlns="http://www.w3.org/2000/svg">
<g filter="url(#filter0_f_516_34)">
<path d="M309.643 138.274C321.158 214.339 270.393 285.077 196.288 296.295C122.183 307.513 52.7559 254.969 41.2415 178.904C29.727 102.84 80.4917 32.1017 154.597 20.8839C228.702 9.66605 298.129 62.2098 309.643 138.274Z" stroke="#F9F8FC" stroke-opacity="0.59"/>
<path d="M257.849 211.078C255.396 216.066 250.545 219.562 243.773 221.568C237 223.576 228.351 224.077 218.399 223.107C198.498 221.166 173.493 213.348 148.114 200.096C122.736 186.843 101.831 170.686 88.5437 155.295C81.8989 147.598 77.1767 140.113 74.7418 133.298C72.3073 126.484 72.1736 120.385 74.6261 115.397C77.0787 110.409 81.93 106.913 88.7016 104.906C95.4746 102.899 104.124 102.397 114.076 103.368C133.977 105.309 158.982 113.126 184.36 126.379C209.738 139.632 230.643 155.789 243.931 171.18C250.576 178.877 255.298 186.362 257.733 193.177C260.167 199.991 260.301 206.09 257.849 211.078Z" stroke="#F9F8FC" stroke-opacity="0.59"/>
<path d="M258.961 209.846C256.371 215.573 251.296 219.817 244.264 222.561C237.228 225.307 228.261 226.539 217.956 226.252C197.349 225.677 171.489 219.027 145.277 206.418C119.065 193.809 97.5064 177.648 83.8358 161.733C77.0001 153.775 72.1525 145.897 69.6707 138.573C67.19 131.252 67.0812 124.514 69.6711 118.787C72.2609 113.06 77.3355 108.816 84.368 106.072C91.4037 103.326 100.371 102.094 110.675 102.381C131.283 102.956 157.143 109.605 183.355 122.215C209.567 134.824 231.125 150.985 244.796 166.9C251.632 174.858 256.479 182.736 258.961 190.06C261.442 197.381 261.55 204.119 258.961 209.846Z" stroke="#F9F8FC" stroke-opacity="0.59"/>
<path d="M260.283 208.401C254.922 221.353 239.251 228.464 217.964 229.301C196.716 230.137 170.051 224.704 143.02 212.781C115.988 200.857 93.7541 184.719 79.6525 168.29C65.5255 151.831 59.6713 135.225 65.0322 122.274C70.3931 109.322 86.0644 102.211 107.351 101.374C128.599 100.538 155.264 105.97 182.296 117.894C209.327 129.818 231.561 145.955 245.663 162.385C259.79 178.844 265.644 195.45 260.283 208.401Z" stroke="#F9F8FC" stroke-opacity="0.59"/>
<path d="M261.809 206.734C256.359 221.2 240.269 229.94 218.422 232.232C196.601 234.52 169.181 230.351 141.347 219.155C113.513 207.958 90.5816 191.873 76.0013 174.942C61.4033 157.99 55.2658 140.309 60.7154 125.842C66.165 111.375 82.2555 102.635 104.103 100.344C125.923 98.055 153.343 102.224 181.177 113.421C209.011 124.617 231.943 140.702 246.523 157.634C261.121 174.586 267.258 192.267 261.809 206.734Z" stroke="#F9F8FC" stroke-opacity="0.59"/>
<path d="M263.527 204.829C258.081 220.828 241.663 231.234 219.323 235.018C197 238.799 168.877 235.938 140.259 225.51C111.641 215.083 87.9923 199.08 72.886 181.661C57.7678 164.229 51.277 145.475 56.7233 129.476C62.1695 113.478 78.5875 103.071 100.928 99.2871C123.251 95.5065 151.373 98.3675 179.991 108.795C208.609 119.222 232.258 135.225 247.364 152.644C262.483 170.076 268.974 188.83 263.527 204.829Z" stroke="#F9F8FC" stroke-opacity="0.59"/>
<path d="M265.431 202.674C260.081 220.218 243.429 232.324 220.664 237.635C197.911 242.944 169.141 241.433 139.759 231.816C110.377 222.198 85.992 206.31 70.3131 188.421C54.6265 170.524 47.7115 150.703 53.0617 133.16C58.4118 115.617 75.0641 103.51 97.8286 98.1993C120.582 92.891 149.352 94.4013 178.734 104.019C208.116 113.636 232.501 129.525 248.18 147.413C263.866 165.31 270.781 185.131 265.431 202.674Z" stroke="#F9F8FC" stroke-opacity="0.59"/>
<path d="M267.51 200.258C262.35 219.353 245.557 233.188 222.441 240.059C199.331 246.928 169.97 246.808 139.846 238.041C109.722 229.274 84.5828 213.533 68.2852 195.195C51.9829 176.852 44.5722 155.973 49.733 136.878C54.8938 117.782 71.6862 103.947 94.8027 97.0764C117.913 90.2076 147.273 90.3271 177.398 99.0942C207.522 107.861 232.661 123.603 248.958 141.941C265.26 160.284 272.671 181.162 267.51 200.258Z" stroke="#F9F8FC" stroke-opacity="0.59"/>
<path d="M269.753 197.567C264.875 218.219 248.038 233.805 224.643 242.265C201.252 250.724 171.358 252.033 140.516 244.156C109.673 236.279 83.7644 220.719 66.8029 201.955C49.8389 183.188 41.8606 161.264 46.7382 140.612C51.6159 119.961 68.4533 104.375 91.848 95.9145C115.239 87.4556 145.132 86.1464 175.975 94.0231C206.818 101.9 232.726 117.46 249.688 136.224C266.652 154.992 274.63 176.915 269.753 197.567Z" stroke="#F9F8FC" stroke-opacity="0.59"/>
<path d="M276.824 192.59C272.323 214.797 255.537 232.153 231.94 242.228C208.344 252.303 177.979 255.077 146.443 248.13C114.908 241.183 88.2138 225.839 70.5441 206.674C52.8732 187.507 44.2553 164.555 48.7559 142.348C53.2564 120.14 70.0428 102.785 93.6399 92.7096C117.236 82.6344 147.601 79.8609 179.136 86.8081C210.672 93.7552 237.366 109.099 255.035 128.264C272.706 147.431 281.324 170.383 276.824 192.59Z" stroke="#F9F8FC" stroke-opacity="0.59"/>
<path d="M279.36 189.316C275.331 213.074 258.692 232.212 234.97 243.926C211.248 255.64 180.472 259.911 148.271 253.932C116.069 247.953 88.5775 232.863 70.1561 213.324C51.7346 193.784 42.4053 169.825 46.4346 146.067C50.4639 122.31 67.1026 103.172 90.8247 91.4576C114.547 79.7435 145.322 75.4727 177.524 81.4518C209.725 87.4309 237.217 102.521 255.638 122.06C274.06 141.599 283.389 165.559 279.36 189.316Z" stroke="#F9F8FC" stroke-opacity="0.59"/>
<path d="M282.024 185.734C275.098 236.315 216.399 269.486 150.668 259.531C84.9376 249.576 37.5238 200.335 44.4499 149.754C51.3761 99.1728 110.075 66.002 175.806 75.9568C241.536 85.9117 288.95 135.153 282.024 185.734Z" stroke="#F9F8FC" stroke-opacity="0.59"/>
<path d="M284.804 181.835C279.195 235.468 220.563 272.766 153.629 264.899C86.6948 257.032 37.1925 207.025 42.8012 153.392C48.41 99.7583 107.042 62.4605 173.976 70.3274C240.91 78.1942 290.412 128.201 284.804 181.835Z" stroke="#F9F8FC" stroke-opacity="0.59"/>
<path d="M287.686 177.608C283.581 234.257 225.218 275.713 157.144 270.005C89.0701 264.297 37.3834 213.614 41.4883 156.964C45.5932 100.314 103.956 58.8584 172.03 64.5664C240.104 70.2744 291.791 120.958 287.686 177.608Z" stroke="#F9F8FC" stroke-opacity="0.59"/>
<path d="M290.657 173.044C288.242 232.664 230.352 278.3 161.204 274.82C92.0571 271.34 38.0935 220.074 40.5091 160.454C42.9248 100.834 100.815 55.1975 169.962 58.6778C239.11 62.1581 293.073 113.424 290.657 173.044Z" stroke="#F9F8FC" stroke-opacity="0.59"/>
<path d="M293.701 168.136C293.159 230.671 235.948 280.5 165.797 279.315C95.6454 278.129 39.3161 226.38 39.8586 163.845C40.4012 101.309 97.6119 51.4798 167.763 52.6656C237.915 53.8514 294.244 105.6 293.701 168.136Z" stroke="#F9F8FC" stroke-opacity="0.59"/>
<path d="M296.806 162.873C298.319 228.261 241.994 282.286 170.912 283.459C99.8294 284.633 41.0493 232.507 39.5369 167.12C38.0244 101.732 94.3492 47.7068 165.432 46.5335C236.514 45.3603 295.294 97.4859 296.806 162.873Z" stroke="#F9F8FC" stroke-opacity="0.59"/>
<path d="M299.956 157.252C303.703 225.419 248.472 283.634 176.534 287.228C104.597 290.823 43.2855 238.43 39.5383 170.264C35.7912 102.098 91.0224 43.8826 162.96 40.2882C234.897 36.6938 296.209 89.0862 299.956 157.252Z" stroke="#F9F8FC" stroke-opacity="0.59"/>
<path d="M303.135 151.263C309.294 222.126 255.364 284.516 182.65 290.591C109.936 296.666 46.0172 244.122 39.8583 173.259C33.6994 102.397 87.6293 40.0066 160.343 33.9314C233.057 27.8563 296.976 80.4002 303.135 151.263Z" stroke="#F9F8FC" stroke-opacity="0.59"/>
<path d="M306.327 144.901C315.071 218.37 262.65 284.909 189.242 293.522C115.834 302.135 49.2358 249.56 40.4912 176.091C31.7466 102.622 84.1676 36.083 157.576 27.4702C230.983 18.8574 297.582 71.4326 306.327 144.901Z" stroke="#F9F8FC" stroke-opacity="0.59"/>
</g>
<defs>
<filter id="filter0_f_516_34" x="37.3583" y="17.375" width="275.914" height="282.429" filterUnits="userSpaceOnUse" color-interpolation-filters="sRGB">
<feFlood flood-opacity="0" result="BackgroundImageFix"/>
<feBlend mode="normal" in="SourceGraphic" in2="BackgroundImageFix" result="shape"/>
<feGaussianBlur stdDeviation="0.75" result="effect1_foregroundBlur_516_34"/>
</filter>
</defs>
</svg>
